<?xml version="1.0" standalone="no"?>
<!DOCTYPE svg PUBLIC "-//W3C//DTD SVG 1.1//EN" "http://www.w3.org/Graphics/SVG/1.1/DTD/svg11.dtd" >
<svg xmlns="http://www.w3.org/2000/svg">
<metadata>Generated by IcoMoon</metadata>
<defs>
<font id="icomoon" horiz-adv-x="1024">
<font-face units-per-em="1024" ascent="960" descent="-64" />
<missing-glyph horiz-adv-x="1024" />
<glyph unicode="&#x20;" horiz-adv-x="512" d="" />
<glyph unicode="&#xe600;" glyph-name="uniE600" d="M512 960c282.624 0 512-229.376 512-512s-229.376-512-512-512-512 229.376-512 512c0 282.624 229.376 512 512 512zM512 32.256c229.376 0 415.744 186.368 415.744 415.744s-186.368 415.744-415.744 415.744-415.744-186.368-415.744-415.744c0-229.376 186.368-415.744 415.744-415.744zM272.384 482.816v0l159.744 143.36c8.192 8.192 20.48 12.288 32.768 12.288 26.624 0 47.104-20.48 47.104-47.104 0-14.336-6.144-26.624-16.384-34.816v0l-65.536-61.44h290.816c26.624 0 47.104-20.48 47.104-47.104s-20.48-47.104-47.104-47.104h-290.816l67.584-59.392c10.24-8.192 16.384-20.48 16.384-34.816 0-26.624-20.48-47.104-47.104-47.104-12.288 0-22.528 4.096-32.768 12.288v0l-159.744 143.36c-10.24 8.192-16.384 20.48-16.384 34.816-2.048 12.288 4.096 24.576 14.336 32.768z" />
<glyph unicode="&#xe602;" glyph-name="uniE602" d="M512-64c-282.483 0-512 229.517-512 512s229.517 512 512 512 512-229.517 512-512-229.517-512-512-512zM512 864.662c-229.517 0-416.662-187.145-416.662-416.662s187.145-416.662 416.662-416.662 416.662 187.145 416.662 416.662c0 229.517-187.145 416.662-416.662 416.662zM462.566 398.566h-158.897c-28.248 0-49.434 21.186-49.434 49.434s21.186 49.434 49.434 49.434h413.131c28.248 0 49.434-21.186 49.434-49.434s-21.186-49.434-49.434-49.434h-158.897z" />
<glyph unicode="&#xe603;" glyph-name="uniE603" d="M727.971 879.942c-74.473 0-134.051-26.065-186.182-80.058 0 0 0 0 0 0v0l-29.789-37.236-29.789 35.375c0 0 0 0 0 0v0 0c-52.131 52.131-111.709 81.92-186.182 81.92s-143.36-29.789-197.353-81.92c-52.131-52.131-80.058-121.018-80.058-195.491s29.789-143.36 81.92-197.353l368.64-372.364c11.171-11.171 27.927-18.618 44.684-18.618s31.651 7.447 44.684 18.618l368.64 372.364c52.131 52.131 81.92 122.88 81.92 197.353s-29.789 143.36-81.92 197.353c-53.993 52.131-124.742 80.058-199.215 80.058v0z" />
<glyph unicode="&#xe604;" glyph-name="uniE604" d="M1005.382 86.807c0-26.065-20.48-46.545-46.545-46.545v0h-893.673c0 0 0 0 0 0-26.065 0-46.545 20.48-46.545 46.545 0 9.309 3.724 18.618 7.447 26.065v0l446.836 724.247c7.447 13.033 22.342 20.48 39.098 20.48s31.651-9.309 39.098-22.342v0l446.836-724.247c5.585-7.447 7.447-16.756 7.447-24.204zM573.44 595.084c0 33.513-27.927 61.44-61.44 61.44s-61.44-27.927-61.44-61.44v-230.865c0-33.513 27.927-61.44 61.44-61.44s61.44 27.927 61.44 61.44v230.865zM512 256.233c-33.513 0-61.44-27.927-61.44-61.44s27.927-61.44 61.44-61.44c33.513 0 61.44 27.927 61.44 61.44s-27.927 61.44-61.44 61.44z" />
<glyph unicode="&#xe605;" glyph-name="uniE605" d="M512 516.352c66.027 0 119.552 53.525 119.552 119.552s-53.525 119.552-119.552 119.552c-66.027 0-119.552-53.525-119.552-119.552s53.525-119.552 119.552-119.552c66.027 0 119.552 53.525 119.552 119.552s-53.525 119.552-119.552 119.552c-66.027 0-119.552-53.525-119.552-119.552s53.525-119.552 119.552-119.552zM512 721.152c0 0 0 0 0 0 47.081 0 85.248-38.167 85.248-85.248s-38.167-85.248-85.248-85.248c-47.081 0-85.248 38.167-85.248 85.248 0.145 47.023 38.225 85.103 85.234 85.248zM508.928 25.6l261.888 378.112c98.304 130.816 83.968 346.112-30.464 460.8-59.214 59.254-141.039 95.907-231.424 95.907s-172.21-36.652-231.422-95.905c-114.434-114.434-128.002-329.474-30.722-460.802zM301.568 839.936c53.079 53.253 126.5 86.202 207.616 86.202s154.537-32.949 207.608-86.194c102.408-102.408 115.976-297.48 25.608-416.52l-233.472-337.92-234.496 338.688c-88.832 118.272-76.032 312.576 27.136 415.744zM718.848 226.048c-0.488 0.049-1.054 0.077-1.627 0.077-9.473 0-17.152-7.679-17.152-17.152 0-8.601 6.332-15.724 14.588-16.962 179.294-21.26 275.038-76.812 275.038-111.116 0-46.336-181.76-110.848-477.952-110.848s-477.696 64.768-477.696 111.104c0 34.048 95.744 89.856 275.2 110.848 7.522 1.926 12.993 8.644 12.993 16.64 0 9.451-7.643 17.116-17.086 17.152-179.715-20.992-305.155-80.64-305.155-144.64 0-72.192 175.872-145.152 512-145.152s512 72.96 512 145.152c0 64-125.44 123.648-305.152 144.896z" />
<glyph unicode="&#xe606;" glyph-name="uniE606" horiz-adv-x="1025" d="M874.677 809.9c-92.776 93.647-221.412 151.628-363.59 151.628-282.627 0-511.741-229.114-511.741-511.741 0-124.429 44.409-238.485 118.241-327.185l1.922-2.541-1.815-3.629c-17.126-41.497-46.504-75.057-83.584-96.967-14.863-7.537-24.252-21.734-24.252-38.125 0-20.811 15.138-38.087 35.003-41.417 10.939-1.684 23.274-2.627 35.83-2.627 0.067 0 0.135 0 0.202 0 68.090 1.327 130.815 23.259 182.482 59.794l2.087 1.646 3.629-2.074c70.159-38.201 153.651-60.662 242.39-60.662 0 0 0 0 0 0 0.462-0.002 1.009-0.002 1.556-0.002 282.483 0 511.482 228.998 511.482 511.482 0 0.092 0 0.184 0 0.276 0.002 0.471 0.003 1.047 0.003 1.622 0 140.886-57.281 268.393-149.824 360.503zM842.272 118.246c-84.416-84.278-200.962-136.396-329.681-136.396-86.989 0-168.418 23.803-238.13 65.251-1.232 0.799-5.296 1.97-9.634 1.97-5.332 0-10.251-1.769-14.201-4.752-45.355-36.18-103.035-58.795-165.915-60.866l-20.679-0.012 16.073 12.184c38.438 31.269 68.229 71.732 86.186 118.093 1.873 4.633 2.58 7.782 2.58 11.096 0 5.853-2.204 11.191-5.827 15.229-72.778 81.904-117.246 190.416-117.246 309.314 0 257.714 208.919 466.633 466.633 466.633s466.633-208.919 466.633-466.633c0-129.173-52.486-246.087-137.295-330.579zM751.797 589.805c0.001-0.077 0.001-0.168 0.001-0.259 0-12.599-10.214-22.813-22.813-22.813-0.001 0-0.001 0-0.002 0h-433.45c-11.648 1.276-20.63 11.061-20.63 22.943s8.982 21.667 20.527 22.934l434.59 0.009c12.096-0.701 21.655-10.621 21.776-22.801zM751.797 448c0.001-0.078 0.002-0.169 0.002-0.261 0-12.456-10.098-22.554-22.554-22.554-0.092 0-0.183 0.001-0.275 0.002h-433.436c-12.599 0-22.813 10.214-22.813 22.813s10.214 22.813 22.813 22.813h434.487c12.096-0.701 21.655-10.621 21.776-22.801zM751.797 306.195c0.001-0.078 0.002-0.169 0.002-0.261 0-12.456-10.098-22.554-22.554-22.554-0.092 0-0.183 0.001-0.275 0.002h-433.436c-12.599 0-22.813 10.214-22.813 22.813s10.214 22.813 22.813 22.813h434.487c12.096-0.701 21.655-10.621 21.776-22.801z" />
<glyph unicode="&#xe607;" glyph-name="uniE607" d="M1024 117.248c-3.328 24.986-17.978 45.975-38.536 57.91l-253.816 144.842c-11.346 6.63-24.98 10.545-39.528 10.545-21.837 0-41.615-8.82-55.964-23.092l-49.66-48.893c-6.595-6.683-15.754-10.823-25.879-10.823-8.647 0-16.589 3.019-22.829 8.061-41.756 33.588-79.141 67.079-114.689 102.416-35.196 35.408-68.687 72.793-100.177 111.858-7.14 8.931-10.16 16.873-10.16 25.52 0 10.126 4.14 19.284 10.819 25.876l49.668 49.668c13.826 14.265 22.349 33.74 22.349 55.206 0 15.274-4.315 29.541-11.793 41.647l-144.444 252.331c-13.934 23.803-39.378 39.537-68.497 39.537-21.836 0-41.605-8.847-55.919-23.153l-75.008-75.008c-51.2-51.2-53.248-147.968-2.304-269.568 65.13-140.706 151.177-260.661 255.664-361.661 101.659-105.147 221.615-191.194 354.985-253.259 53.97-25.006 108.372-38.815 165.727-41.181 3.287-0.169 6.149-0.249 9.030-0.249 39.671 0 75.775 15.268 102.758 40.249l74.909 74.917c14.757 14.305 23.916 34.31 23.916 56.455 0 3.472-0.225 6.891-0.662 10.244zM716.8 292.096l252.672-145.408c13.831-8.125 22.969-22.928 22.969-39.865 0-10.233-3.335-19.686-8.978-27.333l-337.319 191.614 13.568 13.568c8.343 8.362 19.878 13.535 32.621 13.535 8.439 0 16.348-2.268 23.15-6.229zM176.896 926.464c14.521-1.892 26.729-10.381 33.675-22.311l145.525-252.889c3.842-6.583 6.111-14.492 6.111-22.931 0-12.744-5.173-24.279-13.534-32.621l-12.545-12.545-192.512 334.592c7.452 5.595 16.858 8.96 27.050 8.96 0.030 0 0.060 0 0.090 0h6.139zM902.4-0.768c-41.472-41.472-126.72-39.936-233.216 4.864-136.656 63.56-253.133 147.442-351.138 249.234-102.508 98.721-186.39 215.198-246.967 344.752-47.527 113.598-49.319 198.59-7.847 240.318l55.808 55.552 193.024-335.104-13.056-13.056c-12.647-12.608-20.471-30.047-20.471-49.314 0-16.571 5.789-31.791 15.454-43.746 34.552-42.641 69.127-80.946 105.601-117.348 36.45-36.521 74.755-71.095 114.801-103.608 14.55-11.706 29.77-17.495 46.341-17.495 19.266 0 36.705 7.825 49.312 20.47l11.778 11.778 336.128-192-55.552-55.552z" />
<glyph unicode="&#xe608;" glyph-name="uniE608" horiz-adv-x="1278" d="M1252.82 955.955h-1227.536c-11.73 0-21.239-9.509-21.239-21.239s9.509-21.239 21.239-21.239c11.73 0 21.239 9.509 21.239 21.239s-9.509 21.239-21.239 21.239c-11.73 0-21.239-9.509-21.239-21.239v-804.282c0-11.73 9.509-21.239 21.239-21.239 0 0 0 0 0 0h550.179v-63.463h-105.94v-105.94h339.563v106.193h-106.698v63.463h550.432c0 0 0 0 0 0 11.73 0 21.239 9.509 21.239 21.239 0 0 0 0 0 0v804.030c0 11.73-9.509 21.239-21.239 21.239 0 0 0 0 0 0zM765.851 3.508v-21.239h-252.84v21.239h105.94v105.94h42.224v-105.94zM1231.581 150.914h-1185.312v762.817h1185.312zM1168.119 363.299h-267.251l-1.77 1.517c-6.924 6.199-14.724 11.659-23.132 16.127l-98.484 63.518h-2.023c-6.572 3.009-14.214 5.383-22.2 6.748l-8.393 3.113v27.812l3.034 2.023c9.757 5.638 18.095 12.446 25.199 20.383 14.759 19.478 27.711 41.519 37.958 65.011 22.236 10.030 37.681 29.284 39.981 52.406l0.020 47.278c-0.259 9.768-4.053 18.603-10.143 25.317-6.608 7.424-10.769 17.213-11.094 27.966l-0.002 22.316c-1.264 50.568-38.432 147.658-169.402 147.658s-167.885-96.585-169.402-148.164v-21.744c-0.314-10.698-4.378-20.391-10.916-27.864-5.998-6.64-9.787-15.468-10.068-25.176l-0.001-47.591c2.176-18.601 13.005-34.281 28.294-43.088 16.627-37.152 43.255-67.118 76.538-87.152l0.855-28.542c-8.694-6.33-18.588-12.001-29.080-16.551l-13.397-6.457-99.113-57.647c-9.138-5.053-17.022-10.842-24.077-17.499l-1.46-1.211h-108.215v-148.164h867.745zM553.971 403.753l9.608 4.804c25.284 11.378 54.108 25.284 54.108 50.568v56.383l-10.872 6.068c-16.687 9.102-61.693 40.201-69.531 75.852l-2.023 8.597-7.332 4.804c-13.148 8.344-15.423 12.895-15.929 12.136v44.5c12.647 14.759 20.442 34.001 20.732 55.057l0.001 21.3c0 4.298 4.298 106.445 126.42 106.445s126.42-95.573 126.42-105.94v-21.744c0.453-21.34 8.414-40.737 21.335-55.74l-0.097-44.89c-4.646-6.754-11.489-11.706-19.481-13.851l-10.86-3.342-3.287-10.619c-8.895-24.42-20.338-45.563-34.379-64.679-1.777-1.565-10.374-7.38-15.178-10.667-6.016-3.71-11.233-7.801-15.946-12.406l-5.292-6.051v-52.591c0-28.065 28.065-33.88 41.466-36.662 4.595-0.817 8.59-1.869 12.452-3.205l68.962-44.834h-339.563zM1125.894 258.37h-783.802v62.704h783.802zM1168.119 871.253h-126.42v-126.42h126.42zM1125.894 786.805h-42.477v42.224h42.224zM257.896 363.299h-148.164v-148.164h148.164zM215.672 257.612h-63.968v63.463h63.968z" />
<glyph unicode="&#xe609;" glyph-name="uniE617" d="M1024 448c0 0.131 0 0.285 0 0.44 0 282.77-229.23 512-512 512s-512-229.23-512-512c0-149.262 63.871-283.605 165.772-377.191l0.372-0.337 16.64-14.080 3.328-2.56c8.704-7.424 17.92-14.336 27.392-20.992l9.216-6.4q14.848-10.24 30.464-19.456l6.912-3.84c11.52-6.4 23.040-12.544 35.072-18.176h2.56c35.751-17.059 77.292-30.646 120.779-38.688l6.453-0.48c13.568-2.304 27.136-4.096 40.96-5.376h5.12c13.824 0 27.648-1.792 41.728-1.792s27.648 0 41.472 1.792h5.12q20.48 1.792 40.448 5.376h3.584c45.942 8.331 86.89 21.565 125.233 39.451l1.231 0.741q17.152 8.192 33.792 17.408l8.192 4.608c9.984 5.888 19.968 12.032 29.44 18.688l10.24 7.168c8.192 5.888 16.128 12.032 24.064 18.176l5.376 4.096 17.152 14.336c102.072 93.863 165.826 228.024 165.888 377.077zM37.12 448c0 0.195 0 0.426 0 0.657 0 262.269 212.611 474.88 474.88 474.88s474.88-212.611 474.88-474.88c0-141.233-61.654-268.065-159.516-355.051-5.229 2.944-10.674 6.259-16.346 9.196l-158.474 79.214c-13.758 6.87-23.040 20.847-23.040 36.992 0 0.045 0 0.090 0 0.135v55.033c3.584 4.608 7.424 9.728 11.52 15.104 19.546 27.47 36.008 59.059 47.829 92.828 23.985 13.703 39.716 36.936 39.723 63.843v66.049c-0.122 16.898-6.404 32.306-16.709 44.112l0.069 86.704c0.305 3.592 0.479 7.773 0.479 11.995 0 37.101-13.445 71.062-35.729 97.275-34.126 38.954-89.678 58.666-164.942 58.666s-130.816-19.712-165.12-58.88c-22.106-25.999-35.551-59.96-35.551-97.061 0-4.222 0.174-8.403 0.516-12.537l-0.036-86.242c-10.236-11.726-16.518-27.134-16.64-44.006v-66.074c0.196-21.21 10.095-40.068 25.466-52.376 12.488-45.598 32.281-85.327 58.381-120.042l-0.647-52.862c-0.053-15.629-8.743-29.217-21.545-36.244l-147.415-80.748c-5.459-3.032-10.059-5.997-14.456-9.223-96.75 87.364-157.576 213.249-157.576 353.34 0 0.071 0 0.143 0 0.214zM790.528 64l-19.968-13.568-9.216-5.888c-8.704-5.376-17.664-10.496-25.6-15.36l-6.144-3.072c-17.972-9.481-39.456-18.741-61.689-26.394l-5.639-0.998q-17.408-5.888-35.328-10.24v0c-12.032-3.072-24.32-5.376-36.608-7.424v0c-11.52-1.792-23.296-3.328-34.816-4.352h-6.144c-11.52 0-23.296-1.536-34.816-1.536s-23.552 0-35.328 1.536h-6.144c-11.776 0-23.552 2.56-35.072 4.352h-1.536c-27.869 4.746-52.241 11.058-75.773 19.173l1.021-0.997q-17.664 5.888-34.56 13.312v0c-10.752 4.608-21.248 9.728-31.744 15.104l-4.096 2.048c-9.472 5.12-18.944 10.496-27.904 16.384l-8.192 5.12c-8.448 5.632-16.896 11.264-25.6 17.408l-2.56 2.048h1.792l147.2 80.384c24.585 13.665 40.949 39.48 40.96 69.118v67.33l-4.352 5.12c-25.402 32.631-44.688 71.381-55.348 113.565l-2.252 9.571-6.4 4.096c-8.531 5.493-14.147 14.87-14.336 25.572v66.588c0.069 9.086 4.105 17.216 10.459 22.753l6.181 5.663v105.984c-0.25 2.805-0.392 6.069-0.392 9.366 0 27.391 9.821 52.488 26.135 71.961 25.201 30.545 71.281 46.161 135.281 46.161s109.824-15.36 136.704-45.824c16.168-19.522 25.976-44.822 25.976-72.413 0-3.256-0.137-6.48-0.404-9.667l0.028-105.824 6.144-5.632c6.391-5.568 10.427-13.698 10.496-22.772v-66.060c-0.098-13.826-9.238-25.491-21.797-29.381l-9.435-2.875-3.072-9.216c-11.578-35.731-27.406-66.793-47.307-94.754-4.149-5.854-9.013-11.998-13.109-16.606l-4.608-5.376v-68.864c0-0.067 0-0.147 0-0.226 0-30.579 17.521-57.066 43.072-69.969l161.984-80.077z" />
<glyph unicode="&#xe60a;" glyph-name="uniE60A" d="M538.065 889.251c290.444 0 467.316-171.287 467.316-379.811s-176.873-376.087-467.316-376.087c-35.375 0-70.749 11.171-104.262 14.895-134.051-171.287-348.16-137.775-348.16-137.775 150.807 70.749 147.084 189.905 121.018 204.8-117.295 68.887-188.044 175.011-188.044 294.167 0 208.524 229.004 379.811 519.447 379.811z" />
<glyph unicode="&#xe60b;" glyph-name="uniE60b" d="M333.808 417.024c-54.497 0-99.019 49.037-99.019 109.099 0 5.799 4.701 10.5 10.5 10.5h37.276c5.799 0 10.5-4.701 10.5-10.5 0-28.036 18.271-50.717 40.637-50.717s40.637 22.786 40.637 50.717c0 5.799 4.701 10.5 10.5 10.5h37.276c5.799 0 10.5-4.701 10.5-10.5 0.21-59.642-44.102-109.099-98.809-109.099zM510.74 363.787c-68.253 0-123.59-49.877-123.59-111.199 0-5.799 4.701-10.5 10.5-10.5h37.276c5.799 0 10.5 4.701 10.5 10.5 0 29.086 29.296 52.502 65.313 52.502s65.313-23.836 65.313-52.502c0-5.799 4.701-10.5 10.5-10.5h37.066c5.799 0 10.5 4.701 10.5 10.5 0 61.217-55.337 111.199-123.38 111.199zM778.395 536.728h-37.276c-5.799 0-10.5-4.701-10.5-10.5 0-28.036-18.166-50.717-40.637-50.717s-40.637 22.471-40.637 50.612c0 5.799-4.701 10.5-10.5 10.5h-37.171c-5.799 0-10.5-4.701-10.5-10.5 0-60.062 44.207-109.099 98.809-109.099s98.914 49.457 98.914 109.099c0 0.031 0.001 0.068 0.001 0.105 0 5.799-4.701 10.5-10.5 10.5 0 0 0 0-0.001 0zM1024 448.105c0-0.031 0-0.068 0-0.105 0-282.77-229.23-512-512-512s-512 229.23-512 512c0 282.77 229.23 512 512 512s512-229.23 512-512zM927.921 448.105c-0.060 229.662-186.251 415.816-415.921 415.816-229.707 0-415.921-186.214-415.921-415.921s186.214-415.921 415.921-415.921c229.683 0.060 415.861 186.238 415.921 415.915zM432.827 526.123c0 5.799-4.701 10.5-10.5 10.5h-37.381c-5.799 0-10.5-4.701-10.5-10.5 0-28.036-18.271-50.717-40.637-50.717s-40.637 22.576-40.637 50.717c0 5.799-4.701 10.5-10.5 10.5h-37.276c-5.799 0-10.5-4.701-10.5-10.5 0-60.062 44.417-109.099 99.019-109.099s98.914 49.457 98.914 109.099zM510.74 363.787c-68.253 0-123.59-49.877-123.59-111.199 0-5.799 4.701-10.5 10.5-10.5h37.276c5.799 0 10.5 4.701 10.5 10.5 0 29.086 29.296 52.502 65.313 52.502s65.313-23.836 65.313-52.502c0-5.799 4.701-10.5 10.5-10.5h37.066c5.799 0 10.5 4.701 10.5 10.5 0 61.217-55.337 111.199-123.38 111.199zM778.395 536.728h-37.276c-5.799 0-10.5-4.701-10.5-10.5 0-28.036-18.166-50.717-40.637-50.717s-40.637 22.471-40.637 50.612c0 5.799-4.701 10.5-10.5 10.5h-37.171c-5.799 0-10.5-4.701-10.5-10.5 0-60.062 44.207-109.099 98.809-109.099s98.914 49.457 98.914 109.099c0 0.031 0.001 0.068 0.001 0.105 0 5.799-4.701 10.5-10.5 10.5 0 0 0 0-0.001 0zM510.74 363.787c-68.253 0-123.59-49.877-123.59-111.199 0-5.799 4.701-10.5 10.5-10.5h37.276c5.799 0 10.5 4.701 10.5 10.5 0 29.086 29.296 52.502 65.313 52.502s65.313-23.836 65.313-52.502c0-5.799 4.701-10.5 10.5-10.5h37.066c5.799 0 10.5 4.701 10.5 10.5 0 61.217-55.337 111.199-123.38 111.199zM422.221 536.728h-37.276c-5.799 0-10.5-4.701-10.5-10.5 0-28.036-18.271-50.717-40.637-50.717s-40.637 22.471-40.637 50.612c0 5.799-4.701 10.5-10.5 10.5h-37.276c-5.799 0-10.5-4.701-10.5-10.5 0-60.062 44.417-109.099 99.019-109.099s98.914 49.457 98.914 109.099c0 0.031 0.001 0.068 0.001 0.106 0 5.799-4.701 10.5-10.5 10.5-0.037 0-0.074 0-0.111-0.001zM778.395 536.728h-37.276c-5.799 0-10.5-4.701-10.5-10.5 0-28.036-18.166-50.717-40.637-50.717s-40.637 22.471-40.637 50.612c0 5.799-4.701 10.5-10.5 10.5h-37.171c-5.799 0-10.5-4.701-10.5-10.5 0-60.062 44.207-109.099 98.809-109.099s98.914 49.457 98.914 109.099c0 0.031 0.001 0.068 0.001 0.105 0 5.799-4.701 10.5-10.5 10.5 0 0 0 0-0.001 0z" />
<glyph unicode="&#xe60c;" glyph-name="uniE60C" d="M512-64c-281.6 0-512 230.4-512 512s230.4 512 512 512c281.6 0 512-230.4 512-512s-230.4-512-512-512zM512 864.914c-230.4 0-416.914-186.514-416.914-416.914s186.514-416.914 416.914-416.914c230.4 0 416.914 186.514 416.914 416.914s-186.514 416.914-416.914 416.914zM738.743 543.086l-256-256c-7.314-7.314-21.943-14.629-32.914-14.629s-25.6 3.657-32.914 14.629v0l-142.629 142.629c-14.629 7.314-18.286 21.943-18.286 32.914 0 25.6 21.943 47.543 47.543 47.543 14.629 0 25.6-3.657 32.914-14.629v0l109.714-109.714 223.086 223.086c7.314 7.314 21.943 14.629 32.914 14.629 25.6 0 47.543-21.943 47.543-47.543 3.657-14.629-3.657-25.6-10.971-32.914v0zM735.086 623.543v0 0 0zM336.457 224.914v0 0 0zM687.543 224.914v0 0 0zM735.086 272.457v0 0 0z" />
<glyph unicode="&#xe60d;" glyph-name="uniE60D" d="M621.714 718.629v-76.8c124.343-43.886 215.771-164.571 215.771-307.2 0-179.2-146.286-325.486-325.486-325.486s-325.486 146.286-325.486 325.486c0 142.629 91.429 263.314 219.429 307.2v76.8c-168.229-47.543-292.571-201.143-292.571-384 0-219.429 179.2-398.629 398.629-398.629s398.629 179.2 398.629 398.629c0 182.857-120.686 340.114-288.914 384zM661.943 799.086c0-21.943-18.286-36.571-36.571-36.571-10.971 0-21.943 3.657-29.257 10.971v0l-47.543 51.2v-515.657c0-21.943-18.286-36.571-36.571-36.571-21.943 0-36.571 18.286-36.571 36.571v515.657l-47.543-51.2c-7.314-7.314-18.286-10.971-29.257-10.971-21.943 0-36.571 18.286-36.571 36.571 0 10.971 3.657 18.286 10.971 25.6v0l113.371 124.343c3.657 7.314 14.629 10.971 25.6 10.971s21.943-3.657 29.257-10.971l113.371-124.343c3.657-7.314 7.314-18.286 7.314-25.6z" />
<glyph unicode="&#xe60e;" glyph-name="uniE60E" d="M512-64c-281.6 0-512 230.4-512 512s230.4 512 512 512 512-230.4 512-512c0-281.6-230.4-512-512-512zM512 864.914c-230.4 0-416.914-186.514-416.914-416.914s186.514-416.914 416.914-416.914 416.914 186.514 416.914 416.914c0 230.4-186.514 416.914-416.914 416.914zM753.371 411.429v0l-160.914-142.629c-7.314-7.314-18.286-10.971-32.914-10.971-25.6 0-47.543 21.943-47.543 47.543 0 14.629 7.314 25.6 14.629 36.571v0l65.829 58.514h-292.571c-21.943 0-43.886 21.943-43.886 47.543s21.943 47.543 47.543 47.543h292.571l-69.486 62.171c-10.971 7.314-14.629 21.943-14.629 36.571 0 25.6 21.943 47.543 47.543 47.543 10.971 0 21.943-3.657 32.914-10.971v0l160.914-142.629c10.971-7.314 14.629-21.943 14.629-36.571 0-18.286-7.314-29.257-14.629-40.229z" />
<glyph unicode="&#xe60f;" glyph-name="uniE60F" horiz-adv-x="4710" d="M1069.056 329.216c0-143.36-81.92-233.472-217.088-233.472s-217.088 86.016-217.088 237.568c0 143.36 81.92 233.472 217.088 233.472 135.168-4.096 217.088-90.112 217.088-237.568zM770.048 329.216c0-98.304 28.672-139.264 81.92-139.264s81.92 40.96 81.92 139.264c0 98.304-28.672 139.264-81.92 139.264s-81.92-45.056-81.92-139.264zM1486.848 636.416l-28.672-32.768c-36.864 28.672-69.632 45.056-114.688 45.056-98.304 0-180.224-69.632-180.224-249.856 0-172.032 77.824-249.856 180.224-249.856 57.344 0 94.208 20.48 126.976 49.152l28.672-32.768c-32.768-32.768-81.92-57.344-155.648-57.344-131.072 0-229.376 102.4-229.376 294.912 0 196.608 102.4 294.912 229.376 294.912 65.536-12.288 102.4-28.672 143.36-61.44zM1617.92 697.856c0-20.48-12.288-36.864-36.864-36.864-20.48 0-36.864 16.384-36.864 36.864s12.288 36.864 36.864 36.864c24.576 0 36.864-16.384 36.864-36.864zM1560.576 108.032v434.176h49.152v-434.176h-49.152zM2007.040 108.032l-4.096 77.824c-32.768-53.248-73.728-86.016-143.36-86.016-77.824 0-122.88 49.152-122.88 135.168v311.296h49.152v-307.2c0-69.632 28.672-98.304 86.016-98.304s98.304 36.864 126.976 90.112v315.392h49.152v-434.176h-40.96zM2494.464 108.032h-40.96l-4.096 65.536c-24.576-45.056-65.536-77.824-131.072-77.824-102.4 0-163.84 86.016-163.84 225.28 0 135.168 65.536 229.376 172.032 229.376 57.344 0 98.304-28.672 122.88-57.344v233.472l49.152-4.096v-614.4zM2445.312 218.624v229.376c-24.576 36.864-61.44 65.536-114.688 65.536-77.824 0-126.976-65.536-126.976-188.416s45.056-184.32 118.784-184.32c57.344-4.096 94.208 24.576 122.88 77.824zM2899.968 202.24c0-49.152 12.288-61.44 36.864-73.728l-12.288-28.672c-36.864 8.192-61.44 28.672-65.536 73.728-32.768-53.248-77.824-73.728-135.168-73.728-86.016 0-135.168 53.248-135.168 131.072 0 90.112 69.632 143.36 180.224 143.36h81.92v40.96c0 69.632-28.672 98.304-102.4 98.304-36.864 0-73.728-8.192-118.784-24.576l-8.192 32.768c49.152 20.48 90.112 28.672 139.264 28.672 98.304 0 143.36-49.152 143.36-139.264v-208.896zM2850.816 214.528v118.784h-77.824c-86.016 0-135.168-32.768-135.168-102.4 0-61.44 32.768-94.208 90.112-94.208s94.208 28.672 122.88 77.824zM3346.432 108.032h-40.96l-4.096 65.536c-24.576-45.056-65.536-77.824-131.072-77.824-102.4 0-163.84 86.016-163.84 225.28 0 135.168 65.536 229.376 172.032 229.376 57.344 0 98.304-28.672 122.88-57.344v233.472l49.152-4.096v-614.4zM3297.28 218.624v229.376c-24.576 36.864-61.44 65.536-114.688 65.536-77.824 0-126.976-65.536-126.976-188.416s45.056-184.32 118.784-184.32c57.344-4.096 94.208 24.576 122.88 77.824zM3751.936 202.24c0-49.152 12.288-61.44 36.864-73.728l-12.288-28.672c-36.864 8.192-61.44 28.672-65.536 73.728-32.768-49.152-77.824-73.728-135.168-73.728-86.016 0-135.168 53.248-135.168 131.072 0 90.112 69.632 143.36 180.224 143.36h81.92v40.96c0 69.632-28.672 98.304-102.4 98.304-36.864 0-73.728-8.192-118.784-24.576l-12.288 36.864c49.152 20.48 90.112 28.672 139.264 28.672 98.304 0 143.36-49.152 143.36-139.264v-212.992zM3702.784 214.528v118.784h-77.824c-86.016 0-135.168-32.768-135.168-102.4 0-61.44 32.768-94.208 90.112-94.208s94.208 28.672 122.88 77.824zM4198.4 419.328v-311.296h-49.152v307.2c0 73.728-28.672 102.4-81.92 102.4-57.344 0-98.304-36.864-135.168-90.112v-315.392h-49.152v430.080h40.96l8.192-73.728c32.768 49.152 81.92 81.92 147.456 81.92 77.824 0 118.784-49.152 118.784-131.072zM4665.344 325.12c0-139.264-69.632-229.376-184.32-229.376s-184.32 86.016-184.32 225.28c0 139.264 69.632 229.376 184.32 229.376s184.32-81.92 184.32-225.28zM4345.856 325.12c0-122.88 49.152-184.32 131.072-184.32s135.168 61.44 135.168 188.416c0 122.88-49.152 184.32-135.168 184.32-77.824-4.096-131.072-65.536-131.072-188.416zM491.52 824.832c0-49.767-40.345-90.112-90.112-90.112s-90.112 40.345-90.112 90.112c0 49.767 40.345 90.112 90.112 90.112s90.112-40.345 90.112-90.112zM749.568 812.544l-212.992-212.992v-516.096c0-73.728-61.44-135.168-135.168-135.168s-135.168 61.44-135.168 135.168v520.192l-212.992 208.896c-24.576 24.576-24.576 65.536 0 90.112s65.536 24.576 86.016 0l258.048-258.048 258.048 258.048c24.576 24.576 65.536 24.576 86.016 0 28.672-24.576 28.672-65.536 8.192-90.112zM401.408 640.512v0z" />
<glyph unicode="&#xe610;" glyph-name="uniE610" horiz-adv-x="3527" d="M1003.52 513.991v0l-257.138-186.596 100.124-302.649c2.276-4.551 2.276-9.102 2.276-15.929 0-27.307-20.48-47.787-47.787-47.787-11.378 0-20.48 2.276-27.307 9.102v0l-259.413 188.871-259.413-188.871c-6.827-6.827-18.204-9.102-27.307-9.102-27.307 0-47.787 20.48-47.787 47.787 0 4.551 0 11.378 2.276 15.929l100.124 302.649-261.689 186.596c-11.378 9.102-20.48 22.756-20.48 38.684 0 27.307 20.48 47.787 47.787 47.787v0h318.578l97.849 302.649c6.827 20.48 25.031 34.133 45.511 34.133s40.96-13.653 45.511-34.133l97.849-302.649h318.578c27.307 0 47.787-20.48 47.787-47.787 4.551-15.929-2.276-31.858-15.929-38.684zM2255.076 513.991v0l-257.138-186.596 100.124-302.649c2.276-4.551 2.276-9.102 2.276-15.929 0-27.307-20.48-47.787-47.787-47.787-11.378 0-20.48 2.276-27.307 9.102v0l-259.413 188.871-259.413-188.871c-6.827-6.827-18.204-9.102-27.307-9.102-27.307 0-47.787 20.48-47.787 47.787 0 4.551 0 11.378 2.276 15.929l100.124 302.649-257.138 186.596c-11.378 9.102-20.48 22.756-20.48 38.684 0 27.307 20.48 47.787 47.787 47.787v0h318.578l97.849 302.649c6.827 20.48 25.031 34.133 45.511 34.133s40.96-13.653 45.511-34.133l97.849-302.649h318.578c27.307 0 47.787-20.48 47.787-47.787 0-15.929-6.827-31.858-20.48-38.684zM3506.631 513.991v0l-257.138-186.596 100.124-302.649c2.276-4.551 2.276-9.102 2.276-15.929 0-27.307-20.48-47.787-47.787-47.787-11.378 0-20.48 2.276-27.307 9.102v0l-259.413 188.871-259.413-188.871c-6.827-6.827-18.204-9.102-27.307-9.102-27.307 0-47.787 20.48-47.787 47.787 0 4.551 0 11.378 2.276 15.929l100.124 302.649-257.138 186.596c-11.378 9.102-20.48 22.756-20.48 38.684 0 27.307 20.48 47.787 47.787 47.787v0h318.578l97.849 302.649c6.827 20.48 25.031 34.133 45.511 34.133s40.96-13.653 45.511-34.133l97.849-302.649h318.578c27.307 0 47.787-20.48 47.787-47.787 0-15.929-6.827-31.858-20.48-38.684z" />
<glyph unicode="&#xe612;" glyph-name="uniE612" horiz-adv-x="2276" d="M1003.52 513.991v0l-257.138-186.596 100.124-302.649c2.276-4.551 2.276-9.102 2.276-15.929 0-27.307-20.48-47.787-47.787-47.787-11.378 0-20.48 2.276-27.307 9.102v0l-259.413 188.871-259.413-188.871c-6.827-6.827-18.204-9.102-27.307-9.102-27.307 0-47.787 20.48-47.787 47.787 0 4.551 0 11.378 2.276 15.929l100.124 302.649-261.689 186.596c-11.378 9.102-20.48 22.756-20.48 38.684 0 27.307 20.48 47.787 47.787 47.787v0h318.578l97.849 302.649c6.827 20.48 25.031 34.133 45.511 34.133s40.96-13.653 45.511-34.133l97.849-302.649h318.578c27.307 0 47.787-20.48 47.787-47.787 4.551-15.929-2.276-31.858-15.929-38.684zM2255.076 513.991v0l-257.138-186.596 100.124-302.649c2.276-4.551 2.276-9.102 2.276-15.929 0-27.307-20.48-47.787-47.787-47.787-11.378 0-20.48 2.276-27.307 9.102v0l-259.413 188.871-259.413-188.871c-6.827-6.827-18.204-9.102-27.307-9.102-27.307 0-47.787 20.48-47.787 47.787 0 4.551 0 11.378 2.276 15.929l100.124 302.649-257.138 186.596c-11.378 9.102-20.48 22.756-20.48 38.684 0 27.307 20.48 47.787 47.787 47.787v0h318.578l97.849 302.649c6.827 20.48 25.031 34.133 45.511 34.133s40.96-13.653 45.511-34.133l97.849-302.649h318.578c27.307 0 47.787-20.48 47.787-47.787 0-15.929-6.827-31.858-20.48-38.684z" />
<glyph unicode="&#xe613;" glyph-name="uniE613" d="M1003.52 513.991v0l-257.138-186.596 100.124-302.649c2.276-4.551 2.276-9.102 2.276-15.929 0-27.307-20.48-47.787-47.787-47.787-11.378 0-20.48 2.276-27.307 9.102v0l-259.413 188.871-259.413-188.871c-6.827-6.827-18.204-9.102-27.307-9.102-27.307 0-47.787 20.48-47.787 47.787 0 4.551 0 11.378 2.276 15.929l100.124 302.649-261.689 186.596c-11.378 9.102-20.48 22.756-20.48 38.684 0 27.307 20.48 47.787 47.787 47.787v0h318.578l97.849 302.649c6.827 20.48 25.031 34.133 45.511 34.133s40.96-13.653 45.511-34.133l97.849-302.649h318.578c27.307 0 47.787-20.48 47.787-47.787 4.551-15.929-2.276-31.858-15.929-38.684z" />
<glyph unicode="&#xe614;" glyph-name="uniE614" d="M512 960c-282.483 0-512-229.517-512-512s229.517-512 512-512 512 229.517 512 512-229.517 512-512 512zM737.986 543.338l-254.234-254.234c-7.062-7.062-21.186-14.124-35.31-14.124s-24.717 7.062-35.31 14.124l-141.241 141.241c-7.062 7.062-14.124 21.186-14.124 35.31 0 28.248 21.186 49.434 49.434 49.434 14.124 0 24.717-3.531 35.31-14.124l109.462-109.462 218.924 218.924c7.062 7.062 21.186 14.124 35.31 14.124 28.248 0 49.434-21.186 49.434-49.434-3.531-10.593-10.593-24.717-17.655-31.779zM734.455 624.552v0 0zM335.448 225.545v0 0zM688.552 225.545v0 0zM734.455 271.448v0 0z" />
<glyph unicode="&#xe615;" glyph-name="uniE615" d="M512 960c-282.483 0-512-229.517-512-512s229.517-512 512-512 512 229.517 512 512-229.517 512-512 512zM512 31.338c-229.517 0-416.662 187.145-416.662 416.662s187.145 416.662 416.662 416.662 416.662-187.145 416.662-416.662-187.145-416.662-416.662-416.662zM695.614 451.531l-88.276-38.841-60.028-24.717-45.903-17.655c-24.717-10.593-52.966 0-63.559 24.717l-109.462 264.828c-10.593 24.717 0 52.966 24.717 63.559s52.966 0 63.559-24.717l95.338-222.455 60.028 24.717 88.276 38.841c24.717 10.593 52.966 0 63.559-24.717 7.062-24.717-3.531-52.966-28.248-63.559z" />
<glyph unicode="&#xe900;" glyph-name="uniE900" d="M769.601 603.537h-87.118l-40.875 102.186h-259.157l-40.814-102.186h-13.605v51.124h-61.312v-51.124h-12.201c-26.955 0-48.805-21.851-48.805-48.805 0 0 0 0 0 0v-300.154c0.035-27.277 22.138-49.381 49.412-49.416h514.413c27.277 0.035 49.381 22.138 49.416 49.412v299.913c0 0.073 0.001 0.16 0.001 0.247 0 26.955-21.851 48.805-48.805 48.805-0.193 0-0.386-0.001-0.579-0.003zM287.22 634.040h20.437v-30.503h-20.498zM798.214 254.212c0-16.004-12.974-28.978-28.978-28.978h-514.41c-0.036 0-0.079 0-0.122 0-16.004 0-28.978 12.974-28.978 28.978 0 0.043 0 0.086 0 0.129v300.147c0.035 15.788 12.824 28.578 28.609 28.612h101.092l41.119 102.369h231.216l40.875-102.186h100.966c15.788-0.035 28.578-12.824 28.612-28.609v-300.157zM512.031 613.786c-101.585 0-183.936-82.351-183.936-183.936s82.351-183.936 183.936-183.936c101.585 0 183.936 82.351 183.936 183.936-0.139 101.529-82.407 183.797-183.922 183.936zM512.031 266.047c-90.298 0-163.498 73.201-163.498 163.498s73.201 163.498 163.498 163.498c90.298 0 163.498-73.201 163.498-163.498-0.277-90.137-73.342-163.116-163.485-163.254zM512.031 552.413c-0.054 0-0.119 0-0.183 0-67.723 0-122.624-54.901-122.624-122.624s54.901-122.624 122.624-122.624c67.723 0 122.624 54.9 122.624 122.624-0.104 67.617-54.838 122.416-122.421 122.624zM512.031 327.542c-56.436 0-102.186 45.75-102.186 102.186s45.75 102.186 102.186 102.186c56.436 0 102.186-45.75 102.186-102.186-0.104-56.382-45.8-102.056-102.18-102.125zM736.841 562.662c-22.574 0-40.875-18.3-40.875-40.875s18.3-40.875 40.875-40.875c22.574 0 40.875 18.3 40.875 40.875-0.035 22.56-18.314 40.84-40.871 40.875zM736.841 501.35c0 0 0 0 0 0-11.287 0-20.437 9.15-20.437 20.437s9.15 20.437 20.437 20.437c11.287 0 20.437-9.15 20.437-20.437 0 0 0 0 0 0 0-11.287-9.15-20.437-20.437-20.437 0 0 0 0 0 0zM877.706-64h-45.633v18.302h45.084zM786.988-64h-45.084v18.302h45.084zM696.82-64h-45.084v18.302h45.084zM606.652-64h-45.023v18.302h45.084zM516.484-64h-45.023v18.302h45.084zM426.316-64h-44.962v18.302h45.084zM336.148-64h-44.962v18.302h45.084zM245.98-64h-44.657v18.302h45.084zM155.811-64h-8.907c-0.030 0-0.065 0-0.101 0-13.457 0-26.493 1.803-38.879 5.182l5.731 17.452c9.949-2.751 21.374-4.332 33.167-4.332 0.029 0 0.057 0 0.086 0h9.086zM924.498-56.069l-6.101 17.326c14.007 4.942 26.135 11.681 36.884 20.1l10.945-14.67c-11.817-9.344-25.494-17.046-40.284-22.431zM64.911-39.292c-13.328 9.147-24.691 19.948-34.149 32.286l14.26 11.516c8.609-11.141 18.683-20.613 30.050-28.323zM999.17 1.704l-15.252 10.127c7.381 10.955 13.258 23.675 16.937 37.296l17.898-3.743c-4.295-16.586-10.871-31.143-19.496-44.229zM7.809 35.502c-4.949 14.068-7.809 30.289-7.809 47.178 0 0.015 0 0.029 0 0.044l18.302-0.002c0-0.006 0-0.014 0-0.021 0-14.778 2.502-28.971 7.105-42.179zM1024.061 92.361h-18.302v45.084h18.302zM18.302 127.806h-18.302v45.206h18.302zM1024 182.712h-18.302v45.084h18.302zM18.302 217.974h-18.302v45.084h18.302zM1024 272.88h-18.302v45.084h18.302zM18.302 308.081h-18.302v45.084h18.302zM1024 362.987h-18.302v44.901h18.302zM18.302 398.249h-18.302v45.084h18.302zM1024 453.155h-18.302v44.84h18.302zM18.302 488.356h-18.302v45.084h18.302zM1024 543.262h-18.302v44.901h18.302zM18.302 578.524h-18.302v45.084h18.302zM1024 633.43h-18.302v44.901h18.302zM18.302 668.692h-18.302v45.084h18.302zM1024 723.598h-18.302v44.84h18.302zM18.302 758.677h-18.302v45.206h18.302zM1005.698 813.584c-0.019 14.793-2.542 28.99-7.168 42.2l17.6 5.202c4.988-14.119 7.87-30.401 7.87-47.356 0-0.016 0-0.032 0-0.048zM22.634 846.222l-17.692 4.698c4.402 16.575 11.075 31.104 19.795 44.15l14.918-10.658c-7.337-10.958-13.174-23.679-16.818-37.297zM978.916 891.672c-8.612 11.116-18.685 20.569-30.048 28.261l9.55 15.664c13.568-9.098 25.132-19.886 34.771-32.249zM68.45 914.977l-11.164 14.52c12.054 9.396 26.027 17.091 41.129 22.381l7.127-17.013c-14.191-4.891-26.488-11.638-37.382-20.105zM910.344 937.427c-9.881 2.712-21.227 4.27-32.937 4.27-0.024 0-0.048 0-0.071 0h-9.33v18.302h9.334c0.008 0 0.017 0 0.026 0 13.373 0 26.33-1.781 38.647-5.119zM822.738 941.698h-45.084v18.302h45.084zM732.57 941.698h-45.084v18.302h45.084zM642.402 941.698h-45.084v18.302h45.084zM552.295 941.698h-45.084v18.302h45.084zM462.127 941.698h-45.084v18.302h45.084zM372.142 941.698h-45.267v18.302h45.267zM281.852 941.698h-45.084v18.302h45.084zM191.684 941.698h-44.779v18.302h45.084z" />
<glyph unicode="&#xe901;" glyph-name="uniE901" horiz-adv-x="1074" d="M58.683-64c-0.243-0.004-0.531-0.006-0.818-0.006-32.41 0-58.683 26.273-58.683 58.683 0 16.252 6.607 30.962 17.281 41.588 14.567 13.723 46.864 58.263 60.796 184.917-48.16 70.591-76.996 157.712-77.259 251.553 0 268.574 240.854 487.264 536.803 487.264s536.803-218.69 536.803-487.197-240.854-487.408-536.803-487.408c-0.47-0.001-1.027-0.002-1.584-0.002-70.845 0-138.726 12.691-201.494 35.924-74.615-40.517-165.862-70.024-261.909-85.053zM55.306 20.436v0zM536.803 875.564c-249.509 0-452.367-180.693-452.367-402.761 0.305-81.282 26.783-156.32 71.439-217.19l8.354-11.632-1.478-15.621c-4.594-72.246-21.7-139.37-49.178-200.843 76.368 19.257 142.796 43.916 204.028 76.968l13.812 8.409 18.998-7.81c54.618-22.571 118.038-35.676 184.519-35.676 0.51 0 1.020 0.001 1.53 0.002 249.219 0 452.288 180.693 452.288 402.76s-202.647 403.394-451.945 403.394z" />
</font>
</defs>
</svg>
